{
	"patcher" : 	{
		"fileversion" : 1,
		"rect" : [ 20.0, 44.0, 1135.0, 734.0 ],
		"bglocked" : 0,
		"defrect" : [ 20.0, 44.0, 1135.0, 734.0 ],
		"openrect" : [ 0.0, 0.0, 0.0, 0.0 ],
		"openinpresentation" : 0,
		"default_fontsize" : 12.0,
		"default_fontface" : 0,
		"default_fontname" : "Arial",
		"gridonopen" : 0,
		"gridsize" : [ 15.0, 15.0 ],
		"gridsnaponopen" : 0,
		"toolbarvisible" : 1,
		"boxanimatetime" : 200,
		"imprint" : 0,
		"enablehscroll" : 1,
		"enablevscroll" : 1,
		"devicewidth" : 0.0,
		"boxes" : [ 			{
				"box" : 				{
					"maxclass" : "newobj",
					"text" : "t b",
					"numoutlets" : 1,
					"fontsize" : 12.0,
					"outlettype" : [ "bang" ],
					"patching_rect" : [ 357.0, 420.0, 24.0, 20.0 ],
					"id" : "obj-14",
					"fontname" : "Arial",
					"numinlets" : 1
				}

			}
, 			{
				"box" : 				{
					"maxclass" : "meter~",
					"numoutlets" : 1,
					"outlettype" : [ "float" ],
					"patching_rect" : [ 105.0, 472.0, 80.0, 13.0 ],
					"id" : "obj-16",
					"numinlets" : 1
				}

			}
, 			{
				"box" : 				{
					"maxclass" : "newobj",
					"text" : "s todacR",
					"numoutlets" : 0,
					"fontsize" : 12.0,
					"patching_rect" : [ 369.0, 470.0, 58.0, 20.0 ],
					"id" : "obj-22",
					"fontname" : "Arial",
					"numinlets" : 1
				}

			}
, 			{
				"box" : 				{
					"maxclass" : "newobj",
					"text" : "select 2",
					"numoutlets" : 2,
					"fontsize" : 12.0,
					"outlettype" : [ "bang", "" ],
					"patching_rect" : [ 314.0, 393.0, 52.0, 20.0 ],
					"id" : "obj-23",
					"fontname" : "Arial",
					"numinlets" : 2
				}

			}
, 			{
				"box" : 				{
					"maxclass" : "newobj",
					"text" : "r selectBorough",
					"numoutlets" : 1,
					"fontsize" : 12.0,
					"outlettype" : [ "" ],
					"patching_rect" : [ 316.0, 370.0, 95.0, 20.0 ],
					"id" : "obj-24",
					"fontname" : "Arial",
					"numinlets" : 0
				}

			}
, 			{
				"box" : 				{
					"maxclass" : "newobj",
					"text" : "r panic",
					"numoutlets" : 1,
					"fontsize" : 12.0,
					"outlettype" : [ "" ],
					"patching_rect" : [ 469.0, 400.0, 47.0, 20.0 ],
					"id" : "obj-27",
					"fontname" : "Arial",
					"numinlets" : 0
				}

			}
, 			{
				"box" : 				{
					"maxclass" : "meter~",
					"numoutlets" : 1,
					"outlettype" : [ "float" ],
					"patching_rect" : [ 105.0, 455.0, 80.0, 13.0 ],
					"id" : "obj-31",
					"numinlets" : 1
				}

			}
, 			{
				"box" : 				{
					"maxclass" : "message",
					"text" : "02_Gails.wav",
					"numoutlets" : 1,
					"fontsize" : 12.0,
					"outlettype" : [ "" ],
					"patching_rect" : [ 104.0, 433.0, 83.0, 18.0 ],
					"id" : "obj-32",
					"fontname" : "Arial",
					"numinlets" : 2
				}

			}
, 			{
				"box" : 				{
					"maxclass" : "newobj",
					"text" : "s todacL",
					"numoutlets" : 0,
					"fontsize" : 12.0,
					"patching_rect" : [ 308.0, 471.0, 56.0, 20.0 ],
					"id" : "obj-39",
					"fontname" : "Arial",
					"numinlets" : 1
				}

			}
, 			{
				"box" : 				{
					"maxclass" : "bpatcher",
					"name" : "audioObject_bpatcher_ver3_stereo.maxpat",
					"numoutlets" : 2,
					"outlettype" : [ "signal", "signal" ],
					"patching_rect" : [ 317.0, 451.0, 88.0, 16.0 ],
					"id" : "obj-40",
					"args" : [  ],
					"numinlets" : 4
				}

			}
, 			{
				"box" : 				{
					"maxclass" : "newobj",
					"text" : "loadbang",
					"numoutlets" : 1,
					"fontsize" : 12.0,
					"outlettype" : [ "bang" ],
					"patching_rect" : [ 104.0, 387.0, 60.0, 20.0 ],
					"id" : "obj-41",
					"fontname" : "Arial",
					"numinlets" : 1
				}

			}
, 			{
				"box" : 				{
					"maxclass" : "panel",
					"numoutlets" : 0,
					"border" : 1,
					"bgcolor" : [ 0.317647, 0.709804, 0.321569, 0.47451 ],
					"patching_rect" : [ 99.0, 359.0, 424.0, 139.0 ],
					"id" : "obj-42",
					"rounded" : 24,
					"numinlets" : 1
				}

			}
, 			{
				"box" : 				{
					"maxclass" : "number",
					"numoutlets" : 2,
					"fontsize" : 12.0,
					"outlettype" : [ "int", "bang" ],
					"patching_rect" : [ 551.0, 80.0, 50.0, 20.0 ],
					"id" : "obj-12",
					"fontname" : "Arial",
					"numinlets" : 1
				}

			}
, 			{
				"box" : 				{
					"maxclass" : "newobj",
					"text" : "t b",
					"numoutlets" : 1,
					"fontsize" : 12.0,
					"outlettype" : [ "bang" ],
					"patching_rect" : [ 355.0, 247.0, 24.0, 20.0 ],
					"id" : "obj-4",
					"fontname" : "Arial",
					"numinlets" : 1
				}

			}
, 			{
				"box" : 				{
					"maxclass" : "comment",
					"text" : "5",
					"numoutlets" : 0,
					"fontsize" : 36.0,
					"patching_rect" : [ 24.0, 858.0, 59.0, 48.0 ],
					"id" : "obj-81",
					"fontname" : "Arial Bold",
					"numinlets" : 1
				}

			}
, 			{
				"box" : 				{
					"maxclass" : "comment",
					"text" : "4",
					"numoutlets" : 0,
					"fontsize" : 36.0,
					"patching_rect" : [ 25.0, 696.0, 59.0, 48.0 ],
					"id" : "obj-78",
					"fontname" : "Arial Bold",
					"numinlets" : 1
				}

			}
, 			{
				"box" : 				{
					"maxclass" : "comment",
					"text" : "3",
					"numoutlets" : 0,
					"fontsize" : 36.0,
					"patching_rect" : [ 20.0, 545.0, 59.0, 48.0 ],
					"id" : "obj-77",
					"fontname" : "Arial Bold",
					"numinlets" : 1
				}

			}
, 			{
				"box" : 				{
					"maxclass" : "comment",
					"text" : "2",
					"numoutlets" : 0,
					"fontsize" : 36.0,
					"patching_rect" : [ 21.0, 385.0, 59.0, 48.0 ],
					"id" : "obj-76",
					"fontname" : "Arial Bold",
					"numinlets" : 1
				}

			}
, 			{
				"box" : 				{
					"maxclass" : "comment",
					"text" : "1",
					"numoutlets" : 0,
					"fontsize" : 36.0,
					"patching_rect" : [ 20.0, 226.0, 59.0, 48.0 ],
					"id" : "obj-74",
					"fontname" : "Arial Bold",
					"numinlets" : 1
				}

			}
, 			{
				"box" : 				{
					"maxclass" : "comment",
					"text" : "RECEIVE FROM PROCESSING",
					"linecount" : 2,
					"numoutlets" : 0,
					"fontsize" : 12.0,
					"patching_rect" : [ 757.0, 30.0, 150.0, 34.0 ],
					"id" : "obj-75",
					"fontname" : "Arial",
					"numinlets" : 1
				}

			}
, 			{
				"box" : 				{
					"maxclass" : "comment",
					"text" : "AUDIO NAME CONVENTIONS:\n-begins with number in 2 digits format (01.....wav)\n-no spaces",
					"linecount" : 5,
					"numoutlets" : 0,
					"fontsize" : 12.0,
					"patching_rect" : [ 761.0, 248.0, 150.0, 75.0 ],
					"id" : "obj-73",
					"fontname" : "Arial",
					"numinlets" : 1
				}

			}
, 			{
				"box" : 				{
					"maxclass" : "comment",
					"text" : "turn up volume! (USE L FADER)",
					"linecount" : 2,
					"numoutlets" : 0,
					"fontsize" : 12.0,
					"patching_rect" : [ 194.0, 108.0, 150.0, 34.0 ],
					"id" : "obj-33",
					"fontname" : "Arial",
					"numinlets" : 1
				}

			}
, 			{
				"box" : 				{
					"maxclass" : "meter~",
					"numoutlets" : 1,
					"outlettype" : [ "float" ],
					"patching_rect" : [ 103.0, 299.0, 80.0, 13.0 ],
					"id" : "obj-34",
					"numinlets" : 1
				}

			}
, 			{
				"box" : 				{
					"maxclass" : "gain~",
					"numoutlets" : 2,
					"outlettype" : [ "signal", "int" ],
					"patching_rect" : [ 130.0, 45.0, 25.0, 124.0 ],
					"ignoreclick" : 1,
					"id" : "obj-30",
					"numinlets" : 2
				}

			}
, 			{
				"box" : 				{
					"maxclass" : "newobj",
					"text" : "r todacR",
					"numoutlets" : 1,
					"fontsize" : 12.0,
					"outlettype" : [ "" ],
					"patching_rect" : [ 192.0, 23.0, 56.0, 20.0 ],
					"id" : "obj-29",
					"fontname" : "Arial",
					"numinlets" : 0
				}

			}
, 			{
				"box" : 				{
					"maxclass" : "newobj",
					"text" : "s todacR",
					"numoutlets" : 0,
					"fontsize" : 12.0,
					"patching_rect" : [ 367.0, 297.0, 58.0, 20.0 ],
					"id" : "obj-2",
					"fontname" : "Arial",
					"numinlets" : 1
				}

			}
, 			{
				"box" : 				{
					"maxclass" : "gain~",
					"numoutlets" : 2,
					"outlettype" : [ "signal", "int" ],
					"patching_rect" : [ 100.0, 45.0, 26.0, 124.0 ],
					"id" : "obj-28",
					"numinlets" : 2
				}

			}
, 			{
				"box" : 				{
					"maxclass" : "comment",
					"text" : "Turn DAC on first!",
					"linecount" : 2,
					"numoutlets" : 0,
					"fontsize" : 12.0,
					"patching_rect" : [ 15.0, 14.0, 81.0, 34.0 ],
					"id" : "obj-18",
					"fontname" : "Arial",
					"numinlets" : 1
				}

			}
, 			{
				"box" : 				{
					"maxclass" : "comment",
					"text" : "to stop all audio",
					"numoutlets" : 0,
					"fontsize" : 12.0,
					"patching_rect" : [ 370.0, 27.0, 150.0, 20.0 ],
					"id" : "obj-17",
					"fontname" : "Arial",
					"numinlets" : 1
				}

			}
, 			{
				"box" : 				{
					"maxclass" : "newobj",
					"text" : "select 1",
					"numoutlets" : 2,
					"fontsize" : 12.0,
					"outlettype" : [ "bang", "" ],
					"patching_rect" : [ 312.0, 220.0, 52.0, 20.0 ],
					"id" : "obj-38",
					"fontname" : "Arial",
					"numinlets" : 2
				}

			}
, 			{
				"box" : 				{
					"maxclass" : "newobj",
					"text" : "r selectBorough",
					"numoutlets" : 1,
					"fontsize" : 12.0,
					"outlettype" : [ "" ],
					"patching_rect" : [ 314.0, 197.0, 95.0, 20.0 ],
					"id" : "obj-37",
					"fontname" : "Arial",
					"numinlets" : 0
				}

			}
, 			{
				"box" : 				{
					"maxclass" : "newobj",
					"text" : "s selectBorough",
					"numoutlets" : 0,
					"fontsize" : 12.0,
					"patching_rect" : [ 623.0, 90.0, 97.0, 20.0 ],
					"id" : "obj-35",
					"fontname" : "Arial",
					"numinlets" : 1
				}

			}
, 			{
				"box" : 				{
					"maxclass" : "newobj",
					"text" : "s panic",
					"numoutlets" : 0,
					"fontsize" : 12.0,
					"patching_rect" : [ 230.0, 63.0, 49.0, 20.0 ],
					"id" : "obj-26",
					"fontname" : "Arial",
					"numinlets" : 1
				}

			}
, 			{
				"box" : 				{
					"maxclass" : "newobj",
					"text" : "r panic",
					"numoutlets" : 1,
					"fontsize" : 12.0,
					"outlettype" : [ "" ],
					"patching_rect" : [ 467.0, 227.0, 47.0, 20.0 ],
					"id" : "obj-25",
					"fontname" : "Arial",
					"numinlets" : 0
				}

			}
, 			{
				"box" : 				{
					"maxclass" : "textbutton",
					"numoutlets" : 3,
					"bgovercolor" : [ 1.0, 0.003922, 0.003922, 1.0 ],
					"bgcolor" : [ 1.0, 0.0, 0.0, 1.0 ],
					"fontsize" : 12.0,
					"text" : "PANIC",
					"bordercolor" : [ 0.0, 0.0, 0.0, 1.0 ],
					"outlettype" : [ "", "", "int" ],
					"bgoncolor" : [ 0.34902, 1.0, 0.0, 1.0 ],
					"borderoncolor" : [ 0.0, 0.0, 0.0, 1.0 ],
					"patching_rect" : [ 257.0, 25.0, 100.0, 20.0 ],
					"id" : "obj-20",
					"fontname" : "Arial",
					"numinlets" : 1
				}

			}
, 			{
				"box" : 				{
					"maxclass" : "meter~",
					"numoutlets" : 1,
					"outlettype" : [ "float" ],
					"patching_rect" : [ 103.0, 282.0, 80.0, 13.0 ],
					"id" : "obj-5",
					"numinlets" : 1
				}

			}
, 			{
				"box" : 				{
					"maxclass" : "message",
					"text" : "01_Cow.wav",
					"numoutlets" : 1,
					"fontsize" : 12.0,
					"outlettype" : [ "" ],
					"patching_rect" : [ 102.0, 260.0, 79.0, 18.0 ],
					"id" : "obj-9",
					"fontname" : "Arial",
					"numinlets" : 2
				}

			}
, 			{
				"box" : 				{
					"maxclass" : "newobj",
					"text" : "s todacL",
					"numoutlets" : 0,
					"fontsize" : 12.0,
					"patching_rect" : [ 306.0, 298.0, 56.0, 20.0 ],
					"id" : "obj-7",
					"fontname" : "Arial",
					"numinlets" : 1
				}

			}
, 			{
				"box" : 				{
					"maxclass" : "bpatcher",
					"name" : "audioObject_bpatcher_ver3_stereo.maxpat",
					"numoutlets" : 2,
					"outlettype" : [ "signal", "signal" ],
					"patching_rect" : [ 315.0, 278.0, 88.0, 16.0 ],
					"id" : "obj-3",
					"args" : [  ],
					"numinlets" : 4
				}

			}
, 			{
				"box" : 				{
					"maxclass" : "number",
					"numoutlets" : 2,
					"fontsize" : 12.0,
					"outlettype" : [ "int", "bang" ],
					"patching_rect" : [ 642.0, 62.0, 50.0, 20.0 ],
					"id" : "obj-15",
					"fontname" : "Arial",
					"numinlets" : 1
				}

			}
, 			{
				"box" : 				{
					"maxclass" : "newobj",
					"text" : "loadbang",
					"numoutlets" : 1,
					"fontsize" : 12.0,
					"outlettype" : [ "bang" ],
					"patching_rect" : [ 102.0, 214.0, 60.0, 20.0 ],
					"id" : "obj-10",
					"fontname" : "Arial",
					"numinlets" : 1
				}

			}
, 			{
				"box" : 				{
					"maxclass" : "newobj",
					"text" : "r todacL",
					"numoutlets" : 1,
					"fontsize" : 12.0,
					"outlettype" : [ "" ],
					"patching_rect" : [ 137.0, 26.0, 54.0, 20.0 ],
					"id" : "obj-36",
					"fontname" : "Arial",
					"numinlets" : 0
				}

			}
, 			{
				"box" : 				{
					"maxclass" : "toggle",
					"numoutlets" : 1,
					"outlettype" : [ "int" ],
					"patching_rect" : [ 19.0, 48.0, 20.0, 20.0 ],
					"id" : "obj-21",
					"numinlets" : 1
				}

			}
, 			{
				"box" : 				{
					"maxclass" : "newobj",
					"text" : "dac~",
					"numoutlets" : 0,
					"fontsize" : 12.0,
					"patching_rect" : [ 5.0, 117.0, 37.0, 20.0 ],
					"id" : "obj-19",
					"fontname" : "Arial",
					"numinlets" : 2
				}

			}
, 			{
				"box" : 				{
					"maxclass" : "newobj",
					"text" : "udpreceive 12000",
					"numoutlets" : 1,
					"fontsize" : 12.0,
					"outlettype" : [ "" ],
					"patching_rect" : [ 623.0, 31.0, 106.0, 20.0 ],
					"id" : "obj-1",
					"fontname" : "Arial",
					"numinlets" : 1
				}

			}
, 			{
				"box" : 				{
					"maxclass" : "panel",
					"numoutlets" : 0,
					"border" : 1,
					"bgcolor" : [ 0.317647, 0.709804, 0.321569, 0.47451 ],
					"patching_rect" : [ 97.0, 186.0, 424.0, 139.0 ],
					"id" : "obj-252",
					"rounded" : 24,
					"numinlets" : 1
				}

			}
 ],
		"lines" : [ 			{
				"patchline" : 				{
					"source" : [ "obj-32", 0 ],
					"destination" : [ "obj-40", 0 ],
					"hidden" : 0,
					"midpoints" : [  ]
				}

			}
, 			{
				"patchline" : 				{
					"source" : [ "obj-23", 0 ],
					"destination" : [ "obj-40", 1 ],
					"hidden" : 0,
					"midpoints" : [  ]
				}

			}
, 			{
				"patchline" : 				{
					"source" : [ "obj-14", 0 ],
					"destination" : [ "obj-40", 2 ],
					"hidden" : 0,
					"midpoints" : [  ]
				}

			}
, 			{
				"patchline" : 				{
					"source" : [ "obj-27", 0 ],
					"destination" : [ "obj-40", 3 ],
					"hidden" : 0,
					"midpoints" : [  ]
				}

			}
, 			{
				"patchline" : 				{
					"source" : [ "obj-9", 0 ],
					"destination" : [ "obj-3", 0 ],
					"hidden" : 0,
					"midpoints" : [  ]
				}

			}
, 			{
				"patchline" : 				{
					"source" : [ "obj-38", 0 ],
					"destination" : [ "obj-3", 1 ],
					"hidden" : 0,
					"midpoints" : [  ]
				}

			}
, 			{
				"patchline" : 				{
					"source" : [ "obj-4", 0 ],
					"destination" : [ "obj-3", 2 ],
					"hidden" : 0,
					"midpoints" : [  ]
				}

			}
, 			{
				"patchline" : 				{
					"source" : [ "obj-25", 0 ],
					"destination" : [ "obj-3", 3 ],
					"hidden" : 0,
					"midpoints" : [  ]
				}

			}
, 			{
				"patchline" : 				{
					"source" : [ "obj-40", 0 ],
					"destination" : [ "obj-31", 0 ],
					"hidden" : 0,
					"midpoints" : [  ]
				}

			}
, 			{
				"patchline" : 				{
					"source" : [ "obj-40", 1 ],
					"destination" : [ "obj-22", 0 ],
					"hidden" : 0,
					"midpoints" : [  ]
				}

			}
, 			{
				"patchline" : 				{
					"source" : [ "obj-40", 0 ],
					"destination" : [ "obj-39", 0 ],
					"hidden" : 0,
					"midpoints" : [  ]
				}

			}
, 			{
				"patchline" : 				{
					"source" : [ "obj-40", 1 ],
					"destination" : [ "obj-16", 0 ],
					"hidden" : 0,
					"midpoints" : [  ]
				}

			}
, 			{
				"patchline" : 				{
					"source" : [ "obj-3", 1 ],
					"destination" : [ "obj-34", 0 ],
					"hidden" : 0,
					"midpoints" : [  ]
				}

			}
, 			{
				"patchline" : 				{
					"source" : [ "obj-3", 0 ],
					"destination" : [ "obj-7", 0 ],
					"hidden" : 0,
					"midpoints" : [  ]
				}

			}
, 			{
				"patchline" : 				{
					"source" : [ "obj-3", 1 ],
					"destination" : [ "obj-2", 0 ],
					"hidden" : 0,
					"midpoints" : [  ]
				}

			}
, 			{
				"patchline" : 				{
					"source" : [ "obj-3", 0 ],
					"destination" : [ "obj-5", 0 ],
					"hidden" : 0,
					"midpoints" : [  ]
				}

			}
, 			{
				"patchline" : 				{
					"source" : [ "obj-24", 0 ],
					"destination" : [ "obj-23", 0 ],
					"hidden" : 0,
					"midpoints" : [  ]
				}

			}
, 			{
				"patchline" : 				{
					"source" : [ "obj-23", 1 ],
					"destination" : [ "obj-14", 0 ],
					"hidden" : 0,
					"midpoints" : [  ]
				}

			}
, 			{
				"patchline" : 				{
					"source" : [ "obj-41", 0 ],
					"destination" : [ "obj-32", 0 ],
					"hidden" : 0,
					"midpoints" : [  ]
				}

			}
, 			{
				"patchline" : 				{
					"source" : [ "obj-12", 0 ],
					"destination" : [ "obj-35", 0 ],
					"hidden" : 0,
					"midpoints" : [  ]
				}

			}
, 			{
				"patchline" : 				{
					"source" : [ "obj-29", 0 ],
					"destination" : [ "obj-30", 0 ],
					"hidden" : 0,
					"midpoints" : [  ]
				}

			}
, 			{
				"patchline" : 				{
					"source" : [ "obj-30", 0 ],
					"destination" : [ "obj-19", 1 ],
					"hidden" : 0,
					"midpoints" : [  ]
				}

			}
, 			{
				"patchline" : 				{
					"source" : [ "obj-36", 0 ],
					"destination" : [ "obj-28", 0 ],
					"hidden" : 0,
					"midpoints" : [  ]
				}

			}
, 			{
				"patchline" : 				{
					"source" : [ "obj-28", 1 ],
					"destination" : [ "obj-30", 0 ],
					"hidden" : 0,
					"midpoints" : [  ]
				}

			}
, 			{
				"patchline" : 				{
					"source" : [ "obj-21", 0 ],
					"destination" : [ "obj-19", 0 ],
					"hidden" : 0,
					"midpoints" : [  ]
				}

			}
, 			{
				"patchline" : 				{
					"source" : [ "obj-1", 0 ],
					"destination" : [ "obj-15", 0 ],
					"hidden" : 0,
					"midpoints" : [ 632.5, 58.5, 651.5, 58.5 ]
				}

			}
, 			{
				"patchline" : 				{
					"source" : [ "obj-20", 0 ],
					"destination" : [ "obj-26", 0 ],
					"hidden" : 0,
					"midpoints" : [  ]
				}

			}
, 			{
				"patchline" : 				{
					"source" : [ "obj-1", 0 ],
					"destination" : [ "obj-35", 0 ],
					"hidden" : 0,
					"midpoints" : [ 632.5, 70.0, 632.5, 70.0 ]
				}

			}
, 			{
				"patchline" : 				{
					"source" : [ "obj-37", 0 ],
					"destination" : [ "obj-38", 0 ],
					"hidden" : 0,
					"midpoints" : [  ]
				}

			}
, 			{
				"patchline" : 				{
					"source" : [ "obj-28", 0 ],
					"destination" : [ "obj-19", 0 ],
					"hidden" : 0,
					"midpoints" : [  ]
				}

			}
, 			{
				"patchline" : 				{
					"source" : [ "obj-10", 0 ],
					"destination" : [ "obj-9", 0 ],
					"hidden" : 0,
					"midpoints" : [  ]
				}

			}
, 			{
				"patchline" : 				{
					"source" : [ "obj-38", 1 ],
					"destination" : [ "obj-4", 0 ],
					"hidden" : 0,
					"midpoints" : [  ]
				}

			}
 ]
	}

}
